<svg xmlns="http://www.w3.org/2000/svg" viewBox="0 0 1503.77 426.99"><defs><style>.cls-1{fill:#2a3650;}</style></defs><g id="レイヤー_2" data-name="レイヤー 2"><g id="かんばん_画像" data-name="かんばん 画像"><path class="cls-1" d="M2.22,326.46C14.39,303.58,39.16,257.08,52,219.88s24.79-77.62,28.35-92.65,18.57-31.48,42.18-25.79,30.06,19.29,27.21,33.59-27.31,91-34.22,110.9C99.81,291,67.3,346.46,59.44,356.48s-30.44,12.16-44,4.7C2.93,354.25-3.77,337.72,2.22,326.46Z"/><path class="cls-1" d="M192.57,204.37c0,46.49-1,129.84-1,135.38s.41,19.8-13,19.81-47.5.24-53.63.05-22.41,9.61-23.27,28.11,11,32.1,28.93,33,74.79.39,85.74-.08c20.35-.89,46.07-19.58,46.46-47.91.39-27.82,2.84-335.6,2.83-346.76,0-20.26-21.45-23.18-39.07-23.16s-33.76,7.37-34.63,22.94S192.57,204.37,192.57,204.37Z"/><path class="cls-1" d="M388.39,347.33c8.29,15.07,30.28,15.94,46.14,9.73,8.8-3.44,26.11-15.77,19.55-34.21-5.35-15-29.25-73-40.42-98.3s-45-92.63-50.6-102.7c-10.6-19-32.1-13.61-41.7-9.76s-30.72,16.16-23,37.28c3.86,10.56,28.19,56.55,48.93,101.92S385.12,341.38,388.39,347.33Z"/><path class="cls-1" d="M742.67,91.11c9.79-4.59,68.18-27.06,83.64-33.7s64.89-30.52,78.32-36.09,28.11,3.76,32.91,14.94,3.26,26.62-2.83,32.21-35.49,20.18-51,27.88-85.41,36.08-96.82,40.33a62.71,62.71,0,0,1-30.15,3.68c-8.61-1.07-16.3-5.9-21.69-15.16S732.88,95.69,742.67,91.11Z"/><path class="cls-1" d="M726.2,210.71c-3.47-4.79-33-25-38.62-29.51s-17.32-13.55-19.72-18.34-1.08-16.5-1.08-20.49,6.89-3.89,13.3-4c6.91-.13,20.45.21,26.59.2,11.15,0,18.8-14.65,19.31-27.89s-6.3-28-18.67-28.2c-9.65-.13-29.41-.27-33.94-.26S665.92,79,665.65,74s-.32-50.84-.33-57S653.6-.28,633.9,0s-36.72,7.22-36.71,18.66S597,74,597,76.69s.54,3.73-3.19,4-10.14.1-10.14.1c-10.06,0-42.78,0-50.75,0-12.72.1-20.73,14.13-21,27.16-.34,17.28,10.94,28.52,20.66,28.9,10.55.42,49.87.52,55.32.52s6.3,4.19,5.88,7.54S570.36,209.59,562.4,223s-38.95,68.41-43.55,78.06.76,25.29,11.77,31.45c11.9,6.66,29,9.2,35.66,3.74s27.75-39,27.75-39,2.84-2.51,3.68,1.68-.11,101.52.1,106.13c.38,8.39,14.47,21.6,34.15,21.94,17.67.31,34.92-11.05,35.33-21.54s0-149.81-.41-154.84,1.25-7.13,4.61-5.46,14.69,8,22.24,9,24.68,1.12,31.39-10.88C731.74,231.45,729.66,215.5,726.2,210.71Z"/><path class="cls-1" d="M733.66,249.5c3.77,12.78,16.46,25.35,34,21,16.09-4,72.37-28.72,103.76-43.64,31.8-15.12,88.94-46,93.49-50.27,8.34-7.8,10.26-23.73,3.49-37.84-5.2-10.83-22.83-18.52-34.14-13.5-7.64,3.39-57.63,33.24-88,48-26.61,13-90.9,37.36-94.5,38.57C734.38,217.71,729.88,236.71,733.66,249.5Z"/><path class="cls-1" d="M754.49,342.91c-13.79,5-26.42,23-22.18,41.4s23.85,33.05,41.63,28.68c13.08-3.22,94.76-41.08,116.59-49.91S957.9,329,964.76,323.16c8.9-7.51,14.24-23.82,6.15-39.47-7-13.55-22-25.59-38.06-16.92-11.76,6.36-76.48,35-92.57,42S754.49,342.91,754.49,342.91Z"/><path class="cls-1" d="M1073.07,67.82c-12.07-5.16-15-17.79-11-32.16s18.36-24.14,32.73-20.14,62.63,20.29,72.4,25.61,12.09,22.56,8.65,34.06-16.64,20.69-29.28,18.41S1073.07,67.82,1073.07,67.82Z"/><path class="cls-1" d="M1081.29,116.92c-14.37-4-31,1.42-37,16.37s-2.55,29.62,9.52,34.2,51.72,20.63,60.91,21.77,33.32-.6,38.47-19-1.17-30.45-10.94-33.88S1081.29,116.92,1081.29,116.92Z"/><path class="cls-1" d="M1069.29,321.15c-6.88,11.5-24.56,35.3-32.57,49-8.32,14.2-6.41,34.36,5.66,43s33.71,8.09,43.26-4c6.83-8.67,42.28-58.67,44.57-63.26s4.54-6.45,7-6.11c4.56.62,9.19,5.19,14.91,5.51,7.25.41,14.38-2.89,25.5-9.22s41.49-29.5,47.4-34.13,9-9.26,11.29-10.55,14.75-.38,17.22,0c2.3.34,2.23,1.74,1.54,2.82-7.07,11.16-31.15,32.62-57.25,47.59-23.22,13.32-50.62,24.37-58.81,32.43-6,5.87-10.89,19-3.31,31.86,7.74,13.15,22,17.42,35.72,12.72,10.3-3.54,70.38-37.81,91.68-56.26,23.42-20.29,58.91-57.68,62.24-61.54s4.36-5.4,6.68-7.2a8.75,8.75,0,0,1,5.82-2.34c3.19-.29,9.47,0,11.36.86s-.18,4.16-.74,5.06c-.91,1.49-9.36,12.93-16.54,21.67s-34.4,35.75-46,43.47S1261,379.36,1254.5,384c-8.7,6.31-16.5,16.46-10.58,27s16.26,16.32,28.53,13.59c17.2-3.84,41.61-21.63,56-32.69s39.28-33.69,48.26-44.24,24.2-35.08,28.57-35.09,3.44,2.92,3.27,8.6c-.18,5.89-1.48,35.94-2.11,38.8-1.15,5.19-8.38,10-15.57,10.8s-12.52,1.34-18.43,1.6-21.36,8.4-23.17,23.88c-1.74,14.82,9.54,28.85,22.89,29.13s52.18-.31,62.75-1.57c19.38-2.33,32-19.21,36.85-41.31s4.69-101.22,4.17-112.79-7.25-24.65-24.72-25.15-158.36-1.65-163.5-1.64-6.94-7.7-.52-7.71,176-.23,189.67-.5,26.41-4.85,26.91-22.58-8-26.2-19.3-26.44-307.3-1.24-319.63-1-24.57,8-24.9,18.78c-.5,16,5.68,24.37,18,28,8.75,2.58,14.72,2.47,21.93,2.58,8,.11,22-1.85,23.55.72s2.51,6.06.08,11.68c-1.65,3.84-12.13,15.57-18,19.68s-12.58,9.26-14.63,8.5-.52-5.66-2.07-13.62-10-24.4-29.83-27-31.34,10.57-33.39,16.22S1069.29,321.15,1069.29,321.15Z"/><path class="cls-1" d="M1446.73,34.73c0-12.48-12-27.41-24.46-27.4l-205.67.2c-12.49,0-22.59,14.12-22.58,26.6l.1,106.7a22.61,22.61,0,0,0,22.63,22.59l209.18-.21a22.6,22.6,0,0,0,22.59-22.62Zm-69.85,78.56c0,2.51-2,4.76-4.16,4.76l-99.5.41c-2.14,0-6.25-1.8-6.25-4.31l.07-2.57c0-2.51,3.48-4.55,5.62-4.55l98.92-.26c2.14,0,5.3,2.19,5.31,4.7Zm-.05-56.64a4.3,4.3,0,0,1-4.17,4.06l-99.5.36c-2.14,0-6.24-1.53-6.25-3.67l.08-2.19c0-2.14,3.48-3.88,5.61-3.88l98.93-.23c2.14,0,5.3,1.86,5.3,4Z"/></g></g></svg>