<svg xmlns="http://www.w3.org/2000/svg" viewBox="0 0 497.05 2365.01"><defs><style>.cls-1{fill:#2a3650;}</style></defs><g id="レイヤー_2" data-name="レイヤー 2"><g id="かんばん_画像" data-name="かんばん 画像"><path class="cls-1" d="M19.12,323.69c12.17-22.88,36.93-69.38,49.77-106.58s24.79-77.62,28.35-92.65S115.81,93,139.41,98.67s30.06,19.29,27.22,33.59-27.31,91-34.23,110.9c-15.69,45.08-48.21,100.53-56.06,110.55s-30.45,12.16-44,4.7C19.82,351.48,13.13,335,19.12,323.69Z"/><path class="cls-1" d="M209.46,201.6c0,46.49-1,129.84-1,135.38s.41,19.8-13.05,19.81-47.5.24-53.64,0-22.4,9.61-23.26,28.11,11,32.1,28.93,33,74.78.39,85.74-.08c20.35-.89,46.07-19.58,46.46-47.91.38-27.82,2.84-335.6,2.83-346.76C282.43,2.9,261,0,243.38,0s-33.76,7.37-34.63,22.94S209.46,201.6,209.46,201.6Z"/><path class="cls-1" d="M405.29,344.56c8.28,15.07,30.28,15.94,46.14,9.73,8.8-3.44,26.11-15.77,19.54-34.21-5.34-15-29.25-72.95-40.41-98.3s-45-92.63-50.61-102.7c-10.59-19-32.1-13.61-41.7-9.76s-30.71,16.16-23,37.28c3.85,10.56,28.19,56.55,48.92,101.92S402,338.61,405.29,344.56Z"/><path class="cls-1" d="M244.85,560.75c9.79-4.59,68.18-27.06,83.64-33.7s64.89-30.52,78.32-36.09,28.12,3.76,32.92,14.94,3.25,26.62-2.83,32.2-35.49,20.19-51,27.88-85.41,36.09-96.82,40.34A62.7,62.7,0,0,1,259,610c-8.61-1.07-16.29-5.9-21.69-15.16S235.06,565.33,244.85,560.75Z"/><path class="cls-1" d="M228.38,680.35c-3.46-4.79-33-25-38.62-29.51s-17.31-13.55-19.71-18.34S169,616,169,612s6.9-3.88,13.3-4c6.91-.13,20.45.2,26.6.2,11.14,0,18.79-14.65,19.3-27.89s-6.29-28-18.66-28.2c-9.65-.13-29.42-.27-33.94-.26s-7.46-3.19-7.73-8.25-.32-50.83-.32-57-11.73-17.29-31.42-17-36.73,7.23-36.72,18.67-.21,55.36-.21,58,.54,3.73-3.19,4-10.13.1-10.13.1c-10.07,0-42.79,0-50.76.05-12.72.1-20.73,14.12-21,27.15-.34,17.28,10.94,28.53,20.67,28.91,10.54.41,49.86.52,55.32.52s6.29,4.18,5.88,7.54-23.43,64.62-31.39,78.06S25.64,761.07,21,770.72,21.8,796,32.81,802.17c11.89,6.66,28.95,9.2,35.66,3.74s27.74-39,27.74-39,2.84-2.52,3.68,1.68-.1,101.52.11,106.13c.38,8.39,14.46,21.59,34.14,21.94,17.67.31,34.93-11,35.34-21.54s0-149.81-.42-154.84,1.25-7.13,4.61-5.46,14.69,8,22.24,9,24.68,1.11,31.4-10.88C233.92,701.09,231.84,685.14,228.38,680.35Z"/><path class="cls-1" d="M235.84,719.14c3.77,12.78,16.47,25.35,34,21,16.08-4,72.36-28.71,103.75-43.64,31.81-15.11,88.94-46,93.5-50.26,8.34-7.8,10.26-23.73,3.49-37.84-5.2-10.83-22.83-18.53-34.14-13.51-7.64,3.39-57.64,33.25-88,48.05-26.61,13-90.89,37.36-94.49,38.57C236.56,687.35,232.07,706.35,235.84,719.14Z"/><path class="cls-1" d="M256.67,812.54c-13.79,5-26.41,23-22.18,41.41s23.86,33,41.63,28.68c13.09-3.22,94.76-41.08,116.59-49.91S460.08,798.59,467,792.8c8.89-7.51,14.23-23.82,6.14-39.47-7-13.55-22-25.6-38.06-16.92-11.76,6.36-76.48,35-92.57,42S256.67,812.54,256.67,812.54Z"/><path class="cls-1" d="M53.49,1024c-12.07-5.16-15-17.8-11-32.16s18.36-24.15,32.73-20.14,62.63,20.28,72.4,25.61,12.09,22.56,8.65,34S139.68,1052,127,1049.75,53.49,1024,53.49,1024Z"/><path class="cls-1" d="M61.71,1073.06c-14.37-4-30.95,1.43-37,16.37s-2.55,29.63,9.52,34.21,51.72,20.63,60.91,21.77,33.32-.61,38.47-19-1.17-30.45-10.94-33.88S61.71,1073.06,61.71,1073.06Z"/><path class="cls-1" d="M49.71,1277.3c-6.88,11.5-24.56,35.3-32.57,49-8.32,14.21-6.41,34.36,5.66,43s33.71,8.09,43.26-4c6.83-8.67,42.28-58.67,44.57-63.27s4.54-6.44,7-6.1c4.56.62,9.19,5.18,14.91,5.51,7.25.41,14.38-2.89,25.5-9.22s41.49-29.5,47.4-34.13,9-9.26,11.29-10.55,14.75-.38,17.22,0c2.3.35,2.23,1.74,1.54,2.83-7.07,11.16-31.15,32.62-57.25,47.59-23.22,13.32-50.62,24.37-58.81,32.43-6,5.87-10.89,19-3.31,31.86,7.74,13.15,22,17.42,35.72,12.72,10.3-3.54,70.37-37.81,91.68-56.26,23.42-20.29,58.91-57.68,62.24-61.54s4.36-5.4,6.67-7.2a8.79,8.79,0,0,1,5.83-2.34c3.19-.3,9.47,0,11.36.86s-.18,4.16-.74,5.06c-.91,1.49-9.36,12.92-16.54,21.67s-34.4,35.75-45.95,43.46-25.06,16.94-31.51,21.62c-8.7,6.31-16.5,16.46-10.58,27s16.26,16.32,28.53,13.59c17.2-3.84,41.6-21.63,56-32.69s39.28-33.7,48.26-44.24,24.2-35.08,28.57-35.09,3.44,2.92,3.27,8.6c-.18,5.89-1.48,35.93-2.11,38.79-1.15,5.2-8.38,10-15.57,10.81s-12.52,1.34-18.43,1.6-21.36,8.4-23.17,23.88c-1.74,14.82,9.54,28.85,22.89,29.13s52.18-.31,62.75-1.58c19.38-2.32,32-19.2,36.85-41.3s4.69-101.23,4.17-112.79-7.25-24.66-24.72-25.15-158.36-1.65-163.5-1.64-6.94-7.7-.52-7.71,176.05-.24,189.67-.51,26.41-4.84,26.9-22.57-8-26.2-19.29-26.44-307.3-1.25-319.63-1-24.57,8-24.91,18.78c-.49,16,5.69,24.37,18,28,8.74,2.57,14.72,2.47,21.93,2.57,7.95.12,22-1.84,23.55.73s2.51,6.06.08,11.67c-1.66,3.84-12.13,15.57-18,19.69s-12.58,9.26-14.63,8.49-.52-5.65-2.07-13.61-10-24.4-29.83-27S88,1200.81,86,1206.47,49.71,1277.3,49.71,1277.3Z"/><path class="cls-1" d="M427.15,990.88c0-12.48-12-27.41-24.46-27.4l-205.67.2c-12.49,0-22.59,14.12-22.58,26.6l.1,106.7a22.59,22.59,0,0,0,22.63,22.58l209.18-.2a22.61,22.61,0,0,0,22.59-22.63Zm-69.85,78.55c0,2.52-2,4.77-4.16,4.77l-99.5.4c-2.14,0-6.25-1.8-6.25-4.31l.07-2.56c0-2.51,3.48-4.55,5.62-4.55l98.92-.26c2.14,0,5.3,2.19,5.31,4.7Zm-.05-56.63a4.3,4.3,0,0,1-4.17,4.06l-99.5.36c-2.14,0-6.25-1.54-6.25-3.68l.07-2.19c0-2.13,3.48-3.87,5.62-3.88l98.93-.23c2.14,0,5.3,1.87,5.3,4Z"/><path class="cls-1" d="M99.81,1503.87c-12.14-19.19-1.17-31.29,13.76-39.78,15.17-8.62,34.51-13.35,47.13,2,26.92,32.52,53.87,83.56,72,127.81,33.81-20.26,80.28-50.44,121-69.63,20.07-9.55,27,1.9,36.17,13.24,10.29,12.71,21.87,32.65-3.13,44.41-63.39,29.82-139,66.74-186.7,104.16-58.63,46-61.27,85.25-12.44,105.5,43.82,18.66,149.67,2.66,188.42-4.19,31.22-5.51,37.14,11.4,40.45,26.51,4,18.44.29,32.54-27.57,39.2-49.46,11.73-179.81,20.51-241.79-6.15C57,1808,55.36,1709.1,156.79,1640.33c6.26-4.26,11.46-9.7,17.72-13.43C158.23,1584.79,120.47,1536.52,99.81,1503.87Z"/><path class="cls-1" d="M280.91,2047c10.74,125.08,107.71,220.34,201.62,259.54,15.82,5.11,17.38,27.51,11,36.35-9.21,12.86-10.77,22.17-33.38,22.17-48.05,0-164.69-79.05-213.87-195.46-31.65,88.33-75.69,145.64-183.66,191.08-5.65,2.56-44.89,10.26-57.72-14.36-9.79-18.79-4.35-35.55,10.35-41.68C208.05,2227,205.9,2065.44,205.9,2027.15c0-15.32-1.06-59-1.06-59.52,0-16.85,23.72-21.55,39.55-21.55,15.26,0,32.66,8.38,32.66,26.75C277.05,1990.7,280.91,2045.41,280.91,2047Z"/></g></g></svg>